<?xml version="1.0" encoding="UTF-8" standalone="no"?>
<!DOCTYPE svg PUBLIC "-//W3C//DTD SVG 1.1//EN"
 "http://www.w3.org/Graphics/SVG/1.1/DTD/svg11.dtd">
<!-- Generated by graphviz version 2.43.0 (0)
 -->
<!-- Title: example/jwks&#45;verify.cpp Pages: 1 -->
<svg width="2223pt" height="258pt"
 viewBox="0.00 0.00 2222.82 258.00" xmlns="http://www.w3.org/2000/svg" xmlns:xlink="http://www.w3.org/1999/xlink">
<g id="graph0" class="graph" transform="scale(1 1) rotate(0) translate(4 254)">
<title>example/jwks&#45;verify.cpp</title>
<!-- Node1 -->
<g id="Node000001" class="node">
<title>Node1</title>
<g id="a_Node000001"><a xlink:title=" ">
<polygon fill="#999999" stroke="#666666" points="1243.76,-250 1109.76,-250 1109.76,-231 1243.76,-231 1243.76,-250"/>
<text text-anchor="middle" x="1176.76" y="-238" font-family="Helvetica,sans-Serif" font-size="10.00">example/jwks&#45;verify.cpp</text>
</a>
</g>
</g>
<!-- Node2 -->
<g id="Node000002" class="node">
<title>Node2</title>
<g id="a_Node000002"><a xlink:title=" ">
<polygon fill="#e0e0e0" stroke="#999999" points="1118.76,-195 1058.76,-195 1058.76,-176 1118.76,-176 1118.76,-195"/>
<text text-anchor="middle" x="1088.76" y="-183" font-family="Helvetica,sans-Serif" font-size="10.00">iostream</text>
</a>
</g>
</g>
<!-- Node1&#45;&gt;Node2 -->
<g id="edge1_Node000001_Node000002" class="edge">
<title>Node1&#45;&gt;Node2</title>
<g id="a_edge1_Node000001_Node000002"><a xlink:title=" ">
<path fill="none" stroke="#63b8ff" d="M1162.62,-230.98C1148.97,-222.77 1128.07,-210.18 1111.98,-200.49"/>
<polygon fill="#63b8ff" stroke="#63b8ff" points="1113.53,-197.33 1103.15,-195.17 1109.91,-203.33 1113.53,-197.33"/>
</a>
</g>
</g>
<!-- Node3 -->
<g id="Node000003" class="node">
<title>Node3</title>
<g id="a_Node000003"><a xlink:href="jwt_8h_source.html" target="_top" xlink:title=" ">
<polygon fill="white" stroke="#666666" points="1216.76,-195 1136.76,-195 1136.76,-176 1216.76,-176 1216.76,-195"/>
<text text-anchor="middle" x="1176.76" y="-183" font-family="Helvetica,sans-Serif" font-size="10.00">jwt&#45;cpp/jwt.h</text>
</a>
</g>
</g>
<!-- Node1&#45;&gt;Node3 -->
<g id="edge2_Node000001_Node000003" class="edge">
<title>Node1&#45;&gt;Node3</title>
<g id="a_edge2_Node000001_Node000003"><a xlink:title=" ">
<path fill="none" stroke="#63b8ff" d="M1176.76,-230.75C1176.76,-223.8 1176.76,-213.85 1176.76,-205.13"/>
<polygon fill="#63b8ff" stroke="#63b8ff" points="1180.26,-205.09 1176.76,-195.09 1173.26,-205.09 1180.26,-205.09"/>
</a>
</g>
</g>
<!-- Node36 -->
<g id="Node000036" class="node">
<title>Node36</title>
<g id="a_Node000036"><a xlink:title=" ">
<polygon fill="#e0e0e0" stroke="#999999" points="1322.76,-195 1234.76,-195 1234.76,-176 1322.76,-176 1322.76,-195"/>
<text text-anchor="middle" x="1278.76" y="-183" font-family="Helvetica,sans-Serif" font-size="10.00">openssl/rand.h</text>
</a>
</g>
</g>
<!-- Node1&#45;&gt;Node36 -->
<g id="edge39_Node000001_Node000036" class="edge">
<title>Node1&#45;&gt;Node36</title>
<g id="a_edge39_Node000001_Node000036"><a xlink:title=" ">
<path fill="none" stroke="#63b8ff" d="M1193.15,-230.98C1209.33,-222.57 1234.33,-209.59 1253.14,-199.81"/>
<polygon fill="#63b8ff" stroke="#63b8ff" points="1254.81,-202.89 1262.07,-195.17 1251.58,-196.68 1254.81,-202.89"/>
</a>
</g>
</g>
<!-- Node4 -->
<g id="Node000004" class="node">
<title>Node4</title>
<g id="a_Node000004"><a xlink:title=" ">
<polygon fill="#e0e0e0" stroke="#999999" points="1099.76,-19 989.76,-19 989.76,0 1099.76,0 1099.76,-19"/>
<text text-anchor="middle" x="1044.76" y="-7" font-family="Helvetica,sans-Serif" font-size="10.00">picojson/picojson.h</text>
</a>
</g>
</g>
<!-- Node3&#45;&gt;Node4 -->
<g id="edge3_Node000003_Node000004" class="edge">
<title>Node3&#45;&gt;Node4</title>
<g id="a_edge3_Node000003_Node000004"><a xlink:title=" ">
<path fill="none" stroke="#63b8ff" d="M1136.71,-177.09C1133.69,-176.67 1130.68,-176.3 1127.76,-176 1011.2,-163.96 181.91,-185.1 73.76,-140 34.29,-123.54 20.7,-113.26 3.76,-74 0.41,-66.25 -2.08,-61.1 3.76,-55 37.56,-19.72 755.89,-12.29 979.15,-10.84"/>
<polygon fill="#63b8ff" stroke="#63b8ff" points="979.42,-14.33 989.4,-10.77 979.38,-7.33 979.42,-14.33"/>
</a>
</g>
</g>
<!-- Node5 -->
<g id="Node000005" class="node">
<title>Node5</title>
<g id="a_Node000005"><a xlink:href="base_8h_source.html" target="_top" xlink:title=" ">
<polygon fill="white" stroke="#666666" points="172.26,-134.5 123.26,-134.5 123.26,-115.5 172.26,-115.5 172.26,-134.5"/>
<text text-anchor="middle" x="147.76" y="-122.5" font-family="Helvetica,sans-Serif" font-size="10.00">base.h</text>
</a>
</g>
</g>
<!-- Node3&#45;&gt;Node5 -->
<g id="edge4_Node000003_Node000005" class="edge">
<title>Node3&#45;&gt;Node5</title>
<g id="a_edge4_Node000003_Node000005"><a xlink:title=" ">
<path fill="none" stroke="#63b8ff" d="M1136.71,-177.1C1133.69,-176.68 1130.68,-176.31 1127.76,-176 711.53,-132.14 597.64,-219.64 186.76,-140 183.75,-139.42 180.66,-138.64 177.6,-137.75"/>
<polygon fill="#63b8ff" stroke="#63b8ff" points="178.66,-134.41 168.07,-134.62 176.48,-141.06 178.66,-134.41"/>
</a>
</g>
</g>
<!-- Node6 -->
<g id="Node000006" class="node">
<title>Node6</title>
<g id="a_Node000006"><a xlink:title=" ">
<polygon fill="#e0e0e0" stroke="#999999" points="76.76,-74 12.76,-74 12.76,-55 76.76,-55 76.76,-74"/>
<text text-anchor="middle" x="44.76" y="-62" font-family="Helvetica,sans-Serif" font-size="10.00">algorithm</text>
</a>
</g>
</g>
<!-- Node3&#45;&gt;Node6 -->
<g id="edge19_Node000003_Node000006" class="edge">
<title>Node3&#45;&gt;Node6</title>
<g id="a_edge19_Node000003_Node000006"><a xlink:title=" ">
<path fill="none" stroke="#63b8ff" d="M1136.71,-177.1C1133.69,-176.68 1130.68,-176.3 1127.76,-176 1015.74,-164.35 217.32,-186.54 114.76,-140 88.33,-128.01 67.11,-100.95 55.22,-82.95"/>
<polygon fill="#63b8ff" stroke="#63b8ff" points="58.18,-81.08 49.88,-74.5 52.26,-84.82 58.18,-81.08"/>
</a>
</g>
</g>
<!-- Node11 -->
<g id="Node000011" class="node">
<title>Node11</title>
<g id="a_Node000011"><a xlink:title=" ">
<polygon fill="#e0e0e0" stroke="#999999" points="416.26,-74 369.26,-74 369.26,-55 416.26,-55 416.26,-74"/>
<text text-anchor="middle" x="392.76" y="-62" font-family="Helvetica,sans-Serif" font-size="10.00">vector</text>
</a>
</g>
</g>
<!-- Node3&#45;&gt;Node11 -->
<g id="edge34_Node000003_Node000011" class="edge">
<title>Node3&#45;&gt;Node11</title>
<g id="a_edge34_Node000003_Node000011"><a xlink:title=" ">
<path fill="none" stroke="#63b8ff" d="M1136.71,-177.11C1133.68,-176.69 1130.68,-176.31 1127.76,-176 1077.61,-170.68 255.7,-176.36 220.76,-140 211.52,-130.39 212.6,-120.54 220.76,-110 220.89,-109.82 309.53,-86.95 359.49,-74.07"/>
<polygon fill="#63b8ff" stroke="#63b8ff" points="360.42,-77.45 369.23,-71.56 358.67,-70.67 360.42,-77.45"/>
</a>
</g>
</g>
<!-- Node12 -->
<g id="Node000012" class="node">
<title>Node12</title>
<g id="a_Node000012"><a xlink:title=" ">
<polygon fill="#e0e0e0" stroke="#999999" points="306.26,-134.5 229.26,-134.5 229.26,-115.5 306.26,-115.5 306.26,-134.5"/>
<text text-anchor="middle" x="267.76" y="-122.5" font-family="Helvetica,sans-Serif" font-size="10.00">openssl/ec.h</text>
</a>
</g>
</g>
<!-- Node3&#45;&gt;Node12 -->
<g id="edge11_Node000003_Node000012" class="edge">
<title>Node3&#45;&gt;Node12</title>
<g id="a_edge11_Node000003_Node000012"><a xlink:title=" ">
<path fill="none" stroke="#63b8ff" d="M1136.71,-177.12C1133.68,-176.7 1130.68,-176.32 1127.76,-176 768.62,-137.05 672.15,-199 315.76,-140 311.52,-139.3 307.12,-138.34 302.79,-137.26"/>
<polygon fill="#63b8ff" stroke="#63b8ff" points="303.47,-133.82 292.9,-134.56 301.63,-140.57 303.47,-133.82"/>
</a>
</g>
</g>
<!-- Node13 -->
<g id="Node000013" class="node">
<title>Node13</title>
<g id="a_Node000013"><a xlink:title=" ">
<polygon fill="#e0e0e0" stroke="#999999" points="419.26,-134.5 324.26,-134.5 324.26,-115.5 419.26,-115.5 419.26,-134.5"/>
<text text-anchor="middle" x="371.76" y="-122.5" font-family="Helvetica,sans-Serif" font-size="10.00">openssl/ecdsa.h</text>
</a>
</g>
</g>
<!-- Node3&#45;&gt;Node13 -->
<g id="edge12_Node000003_Node000013" class="edge">
<title>Node3&#45;&gt;Node13</title>
<g id="a_edge12_Node000003_Node000013"><a xlink:title=" ">
<path fill="none" stroke="#63b8ff" d="M1136.7,-177.15C1133.68,-176.72 1130.67,-176.33 1127.76,-176 818.61,-141.35 736.52,-185.3 428.76,-140 423.28,-139.19 417.55,-138.1 411.93,-136.87"/>
<polygon fill="#63b8ff" stroke="#63b8ff" points="412.55,-133.42 402.02,-134.56 410.96,-140.24 412.55,-133.42"/>
</a>
</g>
</g>
<!-- Node14 -->
<g id="Node000014" class="node">
<title>Node14</title>
<g id="a_Node000014"><a xlink:title=" ">
<polygon fill="#e0e0e0" stroke="#999999" points="516.26,-134.5 437.26,-134.5 437.26,-115.5 516.26,-115.5 516.26,-134.5"/>
<text text-anchor="middle" x="476.76" y="-122.5" font-family="Helvetica,sans-Serif" font-size="10.00">openssl/err.h</text>
</a>
</g>
</g>
<!-- Node3&#45;&gt;Node14 -->
<g id="edge13_Node000003_Node000014" class="edge">
<title>Node3&#45;&gt;Node14</title>
<g id="a_edge13_Node000003_Node000014"><a xlink:title=" ">
<path fill="none" stroke="#63b8ff" d="M1136.7,-177.17C1133.68,-176.74 1130.67,-176.34 1127.76,-176 861.08,-145.01 789.29,-185.87 524.76,-140 520.57,-139.27 516.23,-138.31 511.95,-137.24"/>
<polygon fill="#63b8ff" stroke="#63b8ff" points="512.73,-133.82 502.17,-134.56 510.89,-140.57 512.73,-133.82"/>
</a>
</g>
</g>
<!-- Node15 -->
<g id="Node000015" class="node">
<title>Node15</title>
<g id="a_Node000015"><a xlink:title=" ">
<polygon fill="#e0e0e0" stroke="#999999" points="617.76,-134.5 533.76,-134.5 533.76,-115.5 617.76,-115.5 617.76,-134.5"/>
<text text-anchor="middle" x="575.76" y="-122.5" font-family="Helvetica,sans-Serif" font-size="10.00">openssl/evp.h</text>
</a>
</g>
</g>
<!-- Node3&#45;&gt;Node15 -->
<g id="edge14_Node000003_Node000015" class="edge">
<title>Node3&#45;&gt;Node15</title>
<g id="a_edge14_Node000003_Node000015"><a xlink:title=" ">
<path fill="none" stroke="#63b8ff" d="M1136.69,-177.21C1133.68,-176.77 1130.67,-176.36 1127.76,-176 906.17,-148.89 846.79,-177.73 626.76,-140 622.26,-139.23 617.58,-138.23 612.97,-137.12"/>
<polygon fill="#63b8ff" stroke="#63b8ff" points="613.62,-133.67 603.06,-134.56 611.87,-140.45 613.62,-133.67"/>
</a>
</g>
</g>
<!-- Node16 -->
<g id="Node000016" class="node">
<title>Node16</title>
<g id="a_Node000016"><a xlink:title=" ">
<polygon fill="#e0e0e0" stroke="#999999" points="728.26,-134.5 635.26,-134.5 635.26,-115.5 728.26,-115.5 728.26,-134.5"/>
<text text-anchor="middle" x="681.76" y="-122.5" font-family="Helvetica,sans-Serif" font-size="10.00">openssl/hmac.h</text>
</a>
</g>
</g>
<!-- Node3&#45;&gt;Node16 -->
<g id="edge15_Node000003_Node000016" class="edge">
<title>Node3&#45;&gt;Node16</title>
<g id="a_edge15_Node000003_Node000016"><a xlink:title=" ">
<path fill="none" stroke="#63b8ff" d="M1136.69,-177.28C1133.67,-176.82 1130.67,-176.39 1127.76,-176 955.2,-153.11 909.36,-169.19 737.76,-140 732.7,-139.14 727.43,-138.06 722.23,-136.89"/>
<polygon fill="#63b8ff" stroke="#63b8ff" points="722.93,-133.46 712.39,-134.56 721.31,-140.27 722.93,-133.46"/>
</a>
</g>
</g>
<!-- Node17 -->
<g id="Node000017" class="node">
<title>Node17</title>
<g id="a_Node000017"><a xlink:title=" ">
<polygon fill="#e0e0e0" stroke="#999999" points="834.76,-134.5 746.76,-134.5 746.76,-115.5 834.76,-115.5 834.76,-134.5"/>
<text text-anchor="middle" x="790.76" y="-122.5" font-family="Helvetica,sans-Serif" font-size="10.00">openssl/pem.h</text>
</a>
</g>
</g>
<!-- Node3&#45;&gt;Node17 -->
<g id="edge16_Node000003_Node000017" class="edge">
<title>Node3&#45;&gt;Node17</title>
<g id="a_edge16_Node000003_Node000017"><a xlink:title=" ">
<path fill="none" stroke="#63b8ff" d="M1136.67,-177.39C1133.66,-176.91 1130.66,-176.44 1127.76,-176 1002.37,-157.16 969.26,-163.96 844.76,-140 840.25,-139.13 835.56,-138.11 830.91,-137.01"/>
<polygon fill="#63b8ff" stroke="#63b8ff" points="831.43,-133.53 820.88,-134.53 829.75,-140.33 831.43,-133.53"/>
</a>
</g>
</g>
<!-- Node18 -->
<g id="Node000018" class="node">
<title>Node18</title>
<g id="a_Node000018"><a xlink:title=" ">
<polygon fill="#e0e0e0" stroke="#999999" points="934.26,-134.5 853.26,-134.5 853.26,-115.5 934.26,-115.5 934.26,-134.5"/>
<text text-anchor="middle" x="893.76" y="-122.5" font-family="Helvetica,sans-Serif" font-size="10.00">openssl/rsa.h</text>
</a>
</g>
</g>
<!-- Node3&#45;&gt;Node18 -->
<g id="edge17_Node000003_Node000018" class="edge">
<title>Node3&#45;&gt;Node18</title>
<g id="a_edge17_Node000003_Node000018"><a xlink:title=" ">
<path fill="none" stroke="#63b8ff" d="M1136.41,-177.22C1079.81,-166.93 979.74,-148.46 943.76,-140 940.12,-139.15 936.35,-138.2 932.59,-137.22"/>
<polygon fill="#63b8ff" stroke="#63b8ff" points="933.3,-133.78 922.73,-134.56 931.48,-140.54 933.3,-133.78"/>
</a>
</g>
</g>
<!-- Node19 -->
<g id="Node000019" class="node">
<title>Node19</title>
<g id="a_Node000019"><a xlink:title=" ">
<polygon fill="#e0e0e0" stroke="#999999" points="1032.76,-134.5 952.76,-134.5 952.76,-115.5 1032.76,-115.5 1032.76,-134.5"/>
<text text-anchor="middle" x="992.76" y="-122.5" font-family="Helvetica,sans-Serif" font-size="10.00">openssl/ssl.h</text>
</a>
</g>
</g>
<!-- Node3&#45;&gt;Node19 -->
<g id="edge18_Node000003_Node000019" class="edge">
<title>Node3&#45;&gt;Node19</title>
<g id="a_edge18_Node000003_Node000019"><a xlink:title=" ">
<path fill="none" stroke="#63b8ff" d="M1150,-175.99C1118.12,-165.86 1064.68,-148.87 1029.08,-137.55"/>
<polygon fill="#63b8ff" stroke="#63b8ff" points="1030.14,-134.21 1019.55,-134.52 1028.01,-140.88 1030.14,-134.21"/>
</a>
</g>
</g>
<!-- Node20 -->
<g id="Node000020" class="node">
<title>Node20</title>
<g id="a_Node000020"><a xlink:title=" ">
<polygon fill="#e0e0e0" stroke="#999999" points="1100.76,-134.5 1050.76,-134.5 1050.76,-115.5 1100.76,-115.5 1100.76,-134.5"/>
<text text-anchor="middle" x="1075.76" y="-122.5" font-family="Helvetica,sans-Serif" font-size="10.00">chrono</text>
</a>
</g>
</g>
<!-- Node3&#45;&gt;Node20 -->
<g id="edge20_Node000003_Node000020" class="edge">
<title>Node3&#45;&gt;Node20</title>
<g id="a_edge20_Node000003_Node000020"><a xlink:title=" ">
<path fill="none" stroke="#63b8ff" d="M1161.85,-175.87C1145.44,-166.36 1118.83,-150.95 1099.53,-139.77"/>
<polygon fill="#63b8ff" stroke="#63b8ff" points="1101.13,-136.65 1090.72,-134.67 1097.62,-142.71 1101.13,-136.65"/>
</a>
</g>
</g>
<!-- Node21 -->
<g id="Node000021" class="node">
<title>Node21</title>
<g id="a_Node000021"><a xlink:title=" ">
<polygon fill="#e0e0e0" stroke="#999999" points="1168.76,-134.5 1118.76,-134.5 1118.76,-115.5 1168.76,-115.5 1168.76,-134.5"/>
<text text-anchor="middle" x="1143.76" y="-122.5" font-family="Helvetica,sans-Serif" font-size="10.00">climits</text>
</a>
</g>
</g>
<!-- Node3&#45;&gt;Node21 -->
<g id="edge21_Node000003_Node000021" class="edge">
<title>Node3&#45;&gt;Node21</title>
<g id="a_edge21_Node000003_Node000021"><a xlink:title=" ">
<path fill="none" stroke="#63b8ff" d="M1171.89,-175.87C1167.11,-167.4 1159.69,-154.24 1153.67,-143.57"/>
<polygon fill="#63b8ff" stroke="#63b8ff" points="1156.61,-141.66 1148.65,-134.67 1150.51,-145.1 1156.61,-141.66"/>
</a>
</g>
</g>
<!-- Node22 -->
<g id="Node000022" class="node">
<title>Node22</title>
<g id="a_Node000022"><a xlink:title=" ">
<polygon fill="#e0e0e0" stroke="#999999" points="1234.26,-134.5 1187.26,-134.5 1187.26,-115.5 1234.26,-115.5 1234.26,-134.5"/>
<text text-anchor="middle" x="1210.76" y="-122.5" font-family="Helvetica,sans-Serif" font-size="10.00">cmath</text>
</a>
</g>
</g>
<!-- Node3&#45;&gt;Node22 -->
<g id="edge22_Node000003_Node000022" class="edge">
<title>Node3&#45;&gt;Node22</title>
<g id="a_edge22_Node000003_Node000022"><a xlink:title=" ">
<path fill="none" stroke="#63b8ff" d="M1181.77,-175.87C1186.7,-167.4 1194.34,-154.24 1200.55,-143.57"/>
<polygon fill="#63b8ff" stroke="#63b8ff" points="1203.72,-145.07 1205.72,-134.67 1197.67,-141.55 1203.72,-145.07"/>
</a>
</g>
</g>
<!-- Node23 -->
<g id="Node000023" class="node">
<title>Node23</title>
<g id="a_Node000023"><a xlink:title=" ">
<polygon fill="#e0e0e0" stroke="#999999" points="1302.76,-134.5 1252.76,-134.5 1252.76,-115.5 1302.76,-115.5 1302.76,-134.5"/>
<text text-anchor="middle" x="1277.76" y="-122.5" font-family="Helvetica,sans-Serif" font-size="10.00">cstring</text>
</a>
</g>
</g>
<!-- Node3&#45;&gt;Node23 -->
<g id="edge23_Node000003_Node000023" class="edge">
<title>Node3&#45;&gt;Node23</title>
<g id="a_edge23_Node000003_Node000023"><a xlink:title=" ">
<path fill="none" stroke="#63b8ff" d="M1191.66,-175.87C1208.07,-166.36 1234.69,-150.95 1253.98,-139.77"/>
<polygon fill="#63b8ff" stroke="#63b8ff" points="1255.89,-142.71 1262.79,-134.67 1252.39,-136.65 1255.89,-142.71"/>
</a>
</g>
</g>
<!-- Node24 -->
<g id="Node000024" class="node">
<title>Node24</title>
<g id="a_Node000024"><a xlink:title=" ">
<polygon fill="#e0e0e0" stroke="#999999" points="1386.26,-134.5 1321.26,-134.5 1321.26,-115.5 1386.26,-115.5 1386.26,-134.5"/>
<text text-anchor="middle" x="1353.76" y="-122.5" font-family="Helvetica,sans-Serif" font-size="10.00">functional</text>
</a>
</g>
</g>
<!-- Node3&#45;&gt;Node24 -->
<g id="edge24_Node000003_Node000024" class="edge">
<title>Node3&#45;&gt;Node24</title>
<g id="a_edge24_Node000003_Node000024"><a xlink:title=" ">
<path fill="none" stroke="#63b8ff" d="M1202.65,-175.99C1229.83,-167.06 1273.81,-152.58 1311.76,-140 1313.89,-139.29 1316.09,-138.56 1318.3,-137.83"/>
<polygon fill="#63b8ff" stroke="#63b8ff" points="1319.61,-141.08 1328,-134.6 1317.4,-134.44 1319.61,-141.08"/>
</a>
</g>
</g>
<!-- Node25 -->
<g id="Node000025" class="node">
<title>Node25</title>
<g id="a_Node000025"><a xlink:title=" ">
<polygon fill="#e0e0e0" stroke="#999999" points="1435.26,-134.5 1404.26,-134.5 1404.26,-115.5 1435.26,-115.5 1435.26,-134.5"/>
<text text-anchor="middle" x="1419.76" y="-122.5" font-family="Helvetica,sans-Serif" font-size="10.00">ios</text>
</a>
</g>
</g>
<!-- Node3&#45;&gt;Node25 -->
<g id="edge25_Node000003_Node000025" class="edge">
<title>Node3&#45;&gt;Node25</title>
<g id="a_edge25_Node000003_Node000025"><a xlink:title=" ">
<path fill="none" stroke="#63b8ff" d="M1216.94,-177.07C1275.53,-166.13 1379.26,-146.29 1395.76,-140 1396.47,-139.73 1397.18,-139.44 1397.89,-139.13"/>
<polygon fill="#63b8ff" stroke="#63b8ff" points="1399.63,-142.18 1406.94,-134.51 1396.44,-135.94 1399.63,-142.18"/>
</a>
</g>
</g>
<!-- Node26 -->
<g id="Node000026" class="node">
<title>Node26</title>
<g id="a_Node000026"><a xlink:title=" ">
<polygon fill="#e0e0e0" stroke="#999999" points="1506.26,-134.5 1453.26,-134.5 1453.26,-115.5 1506.26,-115.5 1506.26,-134.5"/>
<text text-anchor="middle" x="1479.76" y="-122.5" font-family="Helvetica,sans-Serif" font-size="10.00">iterator</text>
</a>
</g>
</g>
<!-- Node3&#45;&gt;Node26 -->
<g id="edge26_Node000003_Node000026" class="edge">
<title>Node3&#45;&gt;Node26</title>
<g id="a_edge26_Node000003_Node000026"><a xlink:title=" ">
<path fill="none" stroke="#63b8ff" d="M1216.86,-177.51C1219.87,-177 1222.86,-176.49 1225.76,-176 1323.02,-159.57 1349.74,-166.47 1444.76,-140 1446.7,-139.46 1448.67,-138.85 1450.65,-138.19"/>
<polygon fill="#63b8ff" stroke="#63b8ff" points="1452.21,-141.34 1460.39,-134.61 1449.8,-134.77 1452.21,-141.34"/>
</a>
</g>
</g>
<!-- Node27 -->
<g id="Node000027" class="node">
<title>Node27</title>
<g id="a_Node000027"><a xlink:title=" ">
<polygon fill="#e0e0e0" stroke="#999999" points="1570.76,-134.5 1524.76,-134.5 1524.76,-115.5 1570.76,-115.5 1570.76,-134.5"/>
<text text-anchor="middle" x="1547.76" y="-122.5" font-family="Helvetica,sans-Serif" font-size="10.00">locale</text>
</a>
</g>
</g>
<!-- Node3&#45;&gt;Node27 -->
<g id="edge27_Node000003_Node000027" class="edge">
<title>Node3&#45;&gt;Node27</title>
<g id="a_edge27_Node000003_Node000027"><a xlink:title=" ">
<path fill="none" stroke="#63b8ff" d="M1216.84,-177.38C1219.86,-176.9 1222.85,-176.43 1225.76,-176 1354.22,-156.9 1390.51,-174.39 1515.76,-140 1517.45,-139.54 1519.16,-139 1520.87,-138.41"/>
<polygon fill="#63b8ff" stroke="#63b8ff" points="1522.45,-141.55 1530.48,-134.64 1519.9,-135.03 1522.45,-141.55"/>
</a>
</g>
</g>
<!-- Node28 -->
<g id="Node000028" class="node">
<title>Node28</title>
<g id="a_Node000028"><a xlink:title=" ">
<polygon fill="#e0e0e0" stroke="#999999" points="1646.76,-134.5 1588.76,-134.5 1588.76,-115.5 1646.76,-115.5 1646.76,-134.5"/>
<text text-anchor="middle" x="1617.76" y="-122.5" font-family="Helvetica,sans-Serif" font-size="10.00">memory</text>
</a>
</g>
</g>
<!-- Node3&#45;&gt;Node28 -->
<g id="edge28_Node000003_Node000028" class="edge">
<title>Node3&#45;&gt;Node28</title>
<g id="a_edge28_Node000003_Node000028"><a xlink:title=" ">
<path fill="none" stroke="#63b8ff" d="M1216.83,-177.31C1219.85,-176.84 1222.85,-176.4 1225.76,-176 1382.43,-154.47 1425.68,-175.62 1579.76,-140 1582.43,-139.38 1585.16,-138.63 1587.89,-137.8"/>
<polygon fill="#63b8ff" stroke="#63b8ff" points="1589.19,-141.05 1597.54,-134.52 1586.94,-134.42 1589.19,-141.05"/>
</a>
</g>
</g>
<!-- Node29 -->
<g id="Node000029" class="node">
<title>Node29</title>
<g id="a_Node000029"><a xlink:title=" ">
<polygon fill="#e0e0e0" stroke="#999999" points="1696.76,-134.5 1664.76,-134.5 1664.76,-115.5 1696.76,-115.5 1696.76,-134.5"/>
<text text-anchor="middle" x="1680.76" y="-122.5" font-family="Helvetica,sans-Serif" font-size="10.00">set</text>
</a>
</g>
</g>
<!-- Node3&#45;&gt;Node29 -->
<g id="edge29_Node000003_Node000029" class="edge">
<title>Node3&#45;&gt;Node29</title>
<g id="a_edge29_Node000003_Node000029"><a xlink:title=" ">
<path fill="none" stroke="#63b8ff" d="M1216.83,-177.25C1219.84,-176.8 1222.85,-176.37 1225.76,-176 1415.98,-151.59 1472.37,-196.13 1655.76,-140 1656.8,-139.68 1657.86,-139.31 1658.9,-138.9"/>
<polygon fill="#63b8ff" stroke="#63b8ff" points="1660.51,-142.02 1668,-134.52 1657.47,-135.71 1660.51,-142.02"/>
</a>
</g>
</g>
<!-- Node30 -->
<g id="Node000030" class="node">
<title>Node30</title>
<g id="a_Node000030"><a xlink:title=" ">
<polygon fill="#e0e0e0" stroke="#999999" points="1796.26,-134.5 1715.26,-134.5 1715.26,-115.5 1796.26,-115.5 1796.26,-134.5"/>
<text text-anchor="middle" x="1755.76" y="-122.5" font-family="Helvetica,sans-Serif" font-size="10.00">system_error</text>
</a>
</g>
</g>
<!-- Node3&#45;&gt;Node30 -->
<g id="edge30_Node000003_Node000030" class="edge">
<title>Node3&#45;&gt;Node30</title>
<g id="a_edge30_Node000003_Node000030"><a xlink:title=" ">
<path fill="none" stroke="#63b8ff" d="M1216.82,-177.22C1219.84,-176.78 1222.84,-176.36 1225.76,-176 1438.07,-149.69 1495.05,-177.02 1705.76,-140 1710.17,-139.22 1714.76,-138.22 1719.28,-137.11"/>
<polygon fill="#63b8ff" stroke="#63b8ff" points="1720.22,-140.48 1729,-134.55 1718.43,-133.71 1720.22,-140.48"/>
</a>
</g>
</g>
<!-- Node31 -->
<g id="Node000031" class="node">
<title>Node31</title>
<g id="a_Node000031"><a xlink:title=" ">
<polygon fill="#e0e0e0" stroke="#999999" points="1883.26,-134.5 1814.26,-134.5 1814.26,-115.5 1883.26,-115.5 1883.26,-134.5"/>
<text text-anchor="middle" x="1848.76" y="-122.5" font-family="Helvetica,sans-Serif" font-size="10.00">type_traits</text>
</a>
</g>
</g>
<!-- Node3&#45;&gt;Node31 -->
<g id="edge31_Node000003_Node000031" class="edge">
<title>Node3&#45;&gt;Node31</title>
<g id="a_edge31_Node000003_Node000031"><a xlink:title=" ">
<path fill="none" stroke="#63b8ff" d="M1216.82,-177.18C1219.84,-176.74 1222.84,-176.34 1225.76,-176 1482.27,-145.88 1552.05,-188.36 1805.76,-140 1809.26,-139.33 1812.87,-138.46 1816.44,-137.48"/>
<polygon fill="#63b8ff" stroke="#63b8ff" points="1817.72,-140.75 1826.28,-134.5 1815.69,-134.05 1817.72,-140.75"/>
</a>
</g>
</g>
<!-- Node32 -->
<g id="Node000032" class="node">
<title>Node32</title>
<g id="a_Node000032"><a xlink:title=" ">
<polygon fill="#e0e0e0" stroke="#999999" points="1994.26,-134.5 1901.26,-134.5 1901.26,-115.5 1994.26,-115.5 1994.26,-134.5"/>
<text text-anchor="middle" x="1947.76" y="-122.5" font-family="Helvetica,sans-Serif" font-size="10.00">unordered_map</text>
</a>
</g>
</g>
<!-- Node3&#45;&gt;Node32 -->
<g id="edge32_Node000003_Node000032" class="edge">
<title>Node3&#45;&gt;Node32</title>
<g id="a_edge32_Node000003_Node000032"><a xlink:title=" ">
<path fill="none" stroke="#63b8ff" d="M1216.81,-177.16C1219.83,-176.72 1222.84,-176.33 1225.76,-176 1520.75,-142.57 1599.29,-184.83 1892.76,-140 1897.92,-139.21 1903.31,-138.15 1908.6,-136.96"/>
<polygon fill="#63b8ff" stroke="#63b8ff" points="1909.67,-140.3 1918.58,-134.56 1908.03,-133.5 1909.67,-140.3"/>
</a>
</g>
</g>
<!-- Node33 -->
<g id="Node000033" class="node">
<title>Node33</title>
<g id="a_Node000033"><a xlink:title=" ">
<polygon fill="#e0e0e0" stroke="#999999" points="2057.26,-134.5 2012.26,-134.5 2012.26,-115.5 2057.26,-115.5 2057.26,-134.5"/>
<text text-anchor="middle" x="2034.76" y="-122.5" font-family="Helvetica,sans-Serif" font-size="10.00">utility</text>
</a>
</g>
</g>
<!-- Node3&#45;&gt;Node33 -->
<g id="edge33_Node000003_Node000033" class="edge">
<title>Node3&#45;&gt;Node33</title>
<g id="a_edge33_Node000003_Node000033"><a xlink:title=" ">
<path fill="none" stroke="#63b8ff" d="M1216.81,-177.13C1219.83,-176.7 1222.84,-176.32 1225.76,-176 1397.8,-157.17 1835.45,-180.34 2003.76,-140 2005.49,-139.58 2007.25,-139.07 2009.01,-138.49"/>
<polygon fill="#63b8ff" stroke="#63b8ff" points="2010.76,-141.56 2018.76,-134.61 2008.17,-135.05 2010.76,-141.56"/>
</a>
</g>
</g>
<!-- Node34 -->
<g id="Node000034" class="node">
<title>Node34</title>
<g id="a_Node000034"><a xlink:href="kazuho-picojson_2defaults_8h_source.html" target="_top" xlink:title=" ">
<polygon fill="white" stroke="#666666" points="2199.76,-140 2075.76,-140 2075.76,-110 2199.76,-110 2199.76,-140"/>
<text text-anchor="start" x="2083.76" y="-128" font-family="Helvetica,sans-Serif" font-size="10.00">traits/kazuho&#45;picojson</text>
<text text-anchor="middle" x="2137.76" y="-117" font-family="Helvetica,sans-Serif" font-size="10.00">/defaults.h</text>
</a>
</g>
</g>
<!-- Node3&#45;&gt;Node34 -->
<g id="edge35_Node000003_Node000034" class="edge">
<title>Node3&#45;&gt;Node34</title>
<g id="a_edge35_Node000003_Node000034"><a xlink:title=" ">
<path fill="none" stroke="#63b8ff" d="M1216.81,-177.12C1219.83,-176.7 1222.84,-176.31 1225.76,-176 1594.46,-136.3 1693.54,-183.47 2065.54,-140.01"/>
<polygon fill="#63b8ff" stroke="#63b8ff" points="2065.98,-143.48 2075.5,-138.83 2065.16,-136.53 2065.98,-143.48"/>
</a>
</g>
</g>
<!-- Node5&#45;&gt;Node6 -->
<g id="edge5_Node000005_Node000006" class="edge">
<title>Node5&#45;&gt;Node6</title>
<g id="a_edge5_Node000005_Node000006"><a xlink:title=" ">
<path fill="none" stroke="#63b8ff" d="M132.56,-115.37C115.75,-105.82 88.44,-90.31 68.73,-79.12"/>
<polygon fill="#63b8ff" stroke="#63b8ff" points="70.44,-76.06 60.02,-74.17 66.98,-82.15 70.44,-76.06"/>
</a>
</g>
</g>
<!-- Node7 -->
<g id="Node000007" class="node">
<title>Node7</title>
<g id="a_Node000007"><a xlink:title=" ">
<polygon fill="#e0e0e0" stroke="#999999" points="136.76,-74 94.76,-74 94.76,-55 136.76,-55 136.76,-74"/>
<text text-anchor="middle" x="115.76" y="-62" font-family="Helvetica,sans-Serif" font-size="10.00">array</text>
</a>
</g>
</g>
<!-- Node5&#45;&gt;Node7 -->
<g id="edge6_Node000005_Node000007" class="edge">
<title>Node5&#45;&gt;Node7</title>
<g id="a_edge6_Node000005_Node000007"><a xlink:title=" ">
<path fill="none" stroke="#63b8ff" d="M143.04,-115.37C138.4,-106.9 131.21,-93.74 125.37,-83.07"/>
<polygon fill="#63b8ff" stroke="#63b8ff" points="128.37,-81.26 120.5,-74.17 122.23,-84.62 128.37,-81.26"/>
</a>
</g>
</g>
<!-- Node8 -->
<g id="Node000008" class="node">
<title>Node8</title>
<g id="a_Node000008"><a xlink:title=" ">
<polygon fill="#e0e0e0" stroke="#999999" points="204.76,-74 154.76,-74 154.76,-55 204.76,-55 204.76,-74"/>
<text text-anchor="middle" x="179.76" y="-62" font-family="Helvetica,sans-Serif" font-size="10.00">cstdint</text>
</a>
</g>
</g>
<!-- Node5&#45;&gt;Node8 -->
<g id="edge7_Node000005_Node000008" class="edge">
<title>Node5&#45;&gt;Node8</title>
<g id="a_edge7_Node000005_Node000008"><a xlink:title=" ">
<path fill="none" stroke="#63b8ff" d="M152.48,-115.37C157.11,-106.9 164.31,-93.74 170.15,-83.07"/>
<polygon fill="#63b8ff" stroke="#63b8ff" points="173.29,-84.62 175.02,-74.17 167.15,-81.26 173.29,-84.62"/>
</a>
</g>
</g>
<!-- Node9 -->
<g id="Node000009" class="node">
<title>Node9</title>
<g id="a_Node000009"><a xlink:title=" ">
<polygon fill="#e0e0e0" stroke="#999999" points="288.26,-74 223.26,-74 223.26,-55 288.26,-55 288.26,-74"/>
<text text-anchor="middle" x="255.76" y="-62" font-family="Helvetica,sans-Serif" font-size="10.00">stdexcept</text>
</a>
</g>
</g>
<!-- Node5&#45;&gt;Node9 -->
<g id="edge8_Node000005_Node000009" class="edge">
<title>Node5&#45;&gt;Node9</title>
<g id="a_edge8_Node000005_Node000009"><a xlink:title=" ">
<path fill="none" stroke="#63b8ff" d="M163.69,-115.37C181.4,-105.78 210.22,-90.17 230.9,-78.97"/>
<polygon fill="#63b8ff" stroke="#63b8ff" points="232.63,-82.01 239.76,-74.17 229.3,-75.85 232.63,-82.01"/>
</a>
</g>
</g>
<!-- Node10 -->
<g id="Node000010" class="node">
<title>Node10</title>
<g id="a_Node000010"><a xlink:title=" ">
<polygon fill="#e0e0e0" stroke="#999999" points="350.76,-74 306.76,-74 306.76,-55 350.76,-55 350.76,-74"/>
<text text-anchor="middle" x="328.76" y="-62" font-family="Helvetica,sans-Serif" font-size="10.00">string</text>
</a>
</g>
</g>
<!-- Node5&#45;&gt;Node10 -->
<g id="edge9_Node000005_Node000010" class="edge">
<title>Node5&#45;&gt;Node10</title>
<g id="a_edge9_Node000005_Node000010"><a xlink:title=" ">
<path fill="none" stroke="#63b8ff" d="M171.21,-115.4C176.32,-113.58 181.71,-111.7 186.76,-110 224.27,-97.39 267.74,-83.94 296.6,-75.17"/>
<polygon fill="#63b8ff" stroke="#63b8ff" points="297.97,-78.41 306.53,-72.16 295.94,-71.71 297.97,-78.41"/>
</a>
</g>
</g>
<!-- Node5&#45;&gt;Node11 -->
<g id="edge10_Node000005_Node000011" class="edge">
<title>Node5&#45;&gt;Node11</title>
<g id="a_edge10_Node000005_Node000011"><a xlink:title=" ">
<path fill="none" stroke="#63b8ff" d="M169.86,-115.46C175.33,-113.52 181.22,-111.56 186.76,-110 259.39,-89.51 281.55,-91.59 359.24,-74.01"/>
<polygon fill="#63b8ff" stroke="#63b8ff" points="360.04,-77.42 369,-71.76 358.47,-70.59 360.04,-77.42"/>
</a>
</g>
</g>
<!-- Node35 -->
<g id="Node000035" class="node">
<title>Node35</title>
<g id="a_Node000035"><a xlink:href="kazuho-picojson_2traits_8h_source.html" target="_top" xlink:title=" ">
<polygon fill="white" stroke="#666666" points="2163.26,-74 2112.26,-74 2112.26,-55 2163.26,-55 2163.26,-74"/>
<text text-anchor="middle" x="2137.76" y="-62" font-family="Helvetica,sans-Serif" font-size="10.00">traits.h</text>
</a>
</g>
</g>
<!-- Node34&#45;&gt;Node35 -->
<g id="edge36_Node000034_Node000035" class="edge">
<title>Node34&#45;&gt;Node35</title>
<g id="a_edge36_Node000034_Node000035"><a xlink:title=" ">
<path fill="none" stroke="#63b8ff" d="M2137.76,-109.84C2137.76,-102.21 2137.76,-92.7 2137.76,-84.45"/>
<polygon fill="#63b8ff" stroke="#63b8ff" points="2141.26,-84.27 2137.76,-74.27 2134.26,-84.27 2141.26,-84.27"/>
</a>
</g>
</g>
<!-- Node35&#45;&gt;Node3 -->
<g id="edge38_Node000035_Node000003" class="edge">
<title>Node35&#45;&gt;Node3</title>
<g id="a_edge38_Node000035_Node000003"><a xlink:title=" ">
<path fill="none" stroke="#63b8ff" d="M2163.26,-74.1C2179.45,-81.04 2199.11,-92.56 2208.76,-110 2215.21,-121.67 2218.01,-130.4 2208.76,-140 2172.2,-177.92 1343.36,-170.91 1226.83,-176.42"/>
<polygon fill="#63b8ff" stroke="#63b8ff" points="1226.55,-172.93 1216.81,-177.1 1227.02,-179.92 1226.55,-172.93"/>
</a>
</g>
</g>
<!-- Node35&#45;&gt;Node4 -->
<g id="edge37_Node000035_Node000004" class="edge">
<title>Node35&#45;&gt;Node4</title>
<g id="a_edge37_Node000035_Node000004"><a xlink:title=" ">
<path fill="none" stroke="#63b8ff" d="M2112.08,-62.26C1974.3,-55.57 1320.96,-23.89 1110.36,-13.68"/>
<polygon fill="#63b8ff" stroke="#63b8ff" points="1110.23,-10.17 1100.07,-13.18 1109.89,-17.16 1110.23,-10.17"/>
</a>
</g>
</g>
</g>
</svg>
