<?xml version="1.0" encoding="UTF-8" standalone="no"?>
<!DOCTYPE svg PUBLIC "-//W3C//DTD SVG 1.1//EN"
 "http://www.w3.org/Graphics/SVG/1.1/DTD/svg11.dtd">
<!-- Generated by graphviz version 2.43.0 (0)
 -->
<!-- Title: example/partial&#45;claim&#45;verifier.cpp Pages: 1 -->
<svg width="2223pt" height="390pt"
 viewBox="0.00 0.00 2222.82 390.00" xmlns="http://www.w3.org/2000/svg" xmlns:xlink="http://www.w3.org/1999/xlink">
<g id="graph0" class="graph" transform="scale(1 1) rotate(0) translate(4 386)">
<title>example/partial&#45;claim&#45;verifier.cpp</title>
<!-- Node1 -->
<g id="Node000001" class="node">
<title>Node1</title>
<g id="a_Node000001"><a xlink:title=" ">
<polygon fill="#999999" stroke="#666666" points="1352.26,-382 1227.26,-382 1227.26,-352 1352.26,-352 1352.26,-382"/>
<text text-anchor="start" x="1235.26" y="-370" font-family="Helvetica,sans-Serif" font-size="10.00">example/partial&#45;claim</text>
<text text-anchor="middle" x="1289.76" y="-359" font-family="Helvetica,sans-Serif" font-size="10.00">&#45;verifier.cpp</text>
</a>
</g>
</g>
<!-- Node2 -->
<g id="Node000002" class="node">
<title>Node2</title>
<g id="a_Node000002"><a xlink:href="nlohmann-json_2defaults_8h_source.html" target="_top" xlink:title=" ">
<polygon fill="white" stroke="#666666" points="1299.26,-316 1166.26,-316 1166.26,-286 1299.26,-286 1299.26,-316"/>
<text text-anchor="start" x="1174.26" y="-304" font-family="Helvetica,sans-Serif" font-size="10.00">jwt&#45;cpp/traits/nlohmann</text>
<text text-anchor="middle" x="1232.76" y="-293" font-family="Helvetica,sans-Serif" font-size="10.00">&#45;json/defaults.h</text>
</a>
</g>
</g>
<!-- Node1&#45;&gt;Node2 -->
<g id="edge1_Node000001_Node000002" class="edge">
<title>Node1&#45;&gt;Node2</title>
<g id="a_edge1_Node000001_Node000002"><a xlink:title=" ">
<path fill="none" stroke="#63b8ff" d="M1277.11,-351.8C1269.8,-343.59 1260.46,-333.1 1252.23,-323.87"/>
<polygon fill="#63b8ff" stroke="#63b8ff" points="1254.64,-321.3 1245.37,-316.16 1249.41,-325.96 1254.64,-321.3"/>
</a>
</g>
</g>
<!-- Node38 -->
<g id="Node000038" class="node">
<title>Node38</title>
<g id="a_Node000038"><a xlink:title=" ">
<polygon fill="#e0e0e0" stroke="#999999" points="1377.76,-310.5 1317.76,-310.5 1317.76,-291.5 1377.76,-291.5 1377.76,-310.5"/>
<text text-anchor="middle" x="1347.76" y="-298.5" font-family="Helvetica,sans-Serif" font-size="10.00">iostream</text>
</a>
</g>
</g>
<!-- Node1&#45;&gt;Node38 -->
<g id="edge41_Node000001_Node000038" class="edge">
<title>Node1&#45;&gt;Node38</title>
<g id="a_edge41_Node000001_Node000038"><a xlink:title=" ">
<path fill="none" stroke="#63b8ff" d="M1302.63,-351.8C1311.58,-341.92 1323.54,-328.72 1332.9,-318.39"/>
<polygon fill="#63b8ff" stroke="#63b8ff" points="1335.62,-320.6 1339.74,-310.84 1330.43,-315.9 1335.62,-320.6"/>
</a>
</g>
</g>
<!-- Node3 -->
<g id="Node000003" class="node">
<title>Node3</title>
<g id="a_Node000003"><a xlink:href="nlohmann-json_2traits_8h_source.html" target="_top" xlink:title=" ">
<polygon fill="white" stroke="#666666" points="1258.26,-250 1207.26,-250 1207.26,-231 1258.26,-231 1258.26,-250"/>
<text text-anchor="middle" x="1232.76" y="-238" font-family="Helvetica,sans-Serif" font-size="10.00">traits.h</text>
</a>
</g>
</g>
<!-- Node2&#45;&gt;Node3 -->
<g id="edge2_Node000002_Node000003" class="edge">
<title>Node2&#45;&gt;Node3</title>
<g id="a_edge2_Node000002_Node000003"><a xlink:title=" ">
<path fill="none" stroke="#63b8ff" d="M1232.76,-285.84C1232.76,-278.21 1232.76,-268.7 1232.76,-260.45"/>
<polygon fill="#63b8ff" stroke="#63b8ff" points="1236.26,-260.27 1232.76,-250.27 1229.26,-260.27 1236.26,-260.27"/>
</a>
</g>
</g>
<!-- Node4 -->
<g id="Node000004" class="node">
<title>Node4</title>
<g id="a_Node000004"><a xlink:href="jwt_8h_source.html" target="_top" xlink:title=" ">
<polygon fill="white" stroke="#666666" points="1216.76,-195 1136.76,-195 1136.76,-176 1216.76,-176 1216.76,-195"/>
<text text-anchor="middle" x="1176.76" y="-183" font-family="Helvetica,sans-Serif" font-size="10.00">jwt&#45;cpp/jwt.h</text>
</a>
</g>
</g>
<!-- Node3&#45;&gt;Node4 -->
<g id="edge3_Node000003_Node000004" class="edge">
<title>Node3&#45;&gt;Node4</title>
<g id="a_edge3_Node000003_Node000004"><a xlink:title=" ">
<path fill="none" stroke="#63b8ff" d="M1223.76,-230.98C1215.56,-223.23 1203.25,-211.58 1193.29,-202.14"/>
<polygon fill="#63b8ff" stroke="#63b8ff" points="1195.59,-199.5 1185.92,-195.17 1190.78,-204.59 1195.59,-199.5"/>
</a>
</g>
</g>
<!-- Node37 -->
<g id="Node000037" class="node">
<title>Node37</title>
<g id="a_Node000037"><a xlink:title=" ">
<polygon fill="#e0e0e0" stroke="#999999" points="1344.76,-195 1234.76,-195 1234.76,-176 1344.76,-176 1344.76,-195"/>
<text text-anchor="middle" x="1289.76" y="-183" font-family="Helvetica,sans-Serif" font-size="10.00">nlohmann/json.hpp</text>
</a>
</g>
</g>
<!-- Node3&#45;&gt;Node37 -->
<g id="edge40_Node000003_Node000037" class="edge">
<title>Node3&#45;&gt;Node37</title>
<g id="a_edge40_Node000003_Node000037"><a xlink:title=" ">
<path fill="none" stroke="#63b8ff" d="M1241.92,-230.98C1250.26,-223.23 1262.79,-211.58 1272.93,-202.14"/>
<polygon fill="#63b8ff" stroke="#63b8ff" points="1275.49,-204.54 1280.43,-195.17 1270.73,-199.42 1275.49,-204.54"/>
</a>
</g>
</g>
<!-- Node5 -->
<g id="Node000005" class="node">
<title>Node5</title>
<g id="a_Node000005"><a xlink:title=" ">
<polygon fill="#e0e0e0" stroke="#999999" points="1099.76,-19 989.76,-19 989.76,0 1099.76,0 1099.76,-19"/>
<text text-anchor="middle" x="1044.76" y="-7" font-family="Helvetica,sans-Serif" font-size="10.00">picojson/picojson.h</text>
</a>
</g>
</g>
<!-- Node4&#45;&gt;Node5 -->
<g id="edge4_Node000004_Node000005" class="edge">
<title>Node4&#45;&gt;Node5</title>
<g id="a_edge4_Node000004_Node000005"><a xlink:title=" ">
<path fill="none" stroke="#63b8ff" d="M1136.52,-184.54C949.86,-184.5 173.13,-181.8 73.76,-140 34.34,-123.42 20.7,-113.26 3.76,-74 0.41,-66.25 -2.08,-61.1 3.76,-55 37.56,-19.72 755.89,-12.29 979.15,-10.84"/>
<polygon fill="#63b8ff" stroke="#63b8ff" points="979.42,-14.33 989.4,-10.77 979.38,-7.33 979.42,-14.33"/>
</a>
</g>
</g>
<!-- Node6 -->
<g id="Node000006" class="node">
<title>Node6</title>
<g id="a_Node000006"><a xlink:href="base_8h_source.html" target="_top" xlink:title=" ">
<polygon fill="white" stroke="#666666" points="172.26,-134.5 123.26,-134.5 123.26,-115.5 172.26,-115.5 172.26,-134.5"/>
<text text-anchor="middle" x="147.76" y="-122.5" font-family="Helvetica,sans-Serif" font-size="10.00">base.h</text>
</a>
</g>
</g>
<!-- Node4&#45;&gt;Node6 -->
<g id="edge5_Node000004_Node000006" class="edge">
<title>Node4&#45;&gt;Node6</title>
<g id="a_edge5_Node000004_Node000006"><a xlink:title=" ">
<path fill="none" stroke="#63b8ff" d="M1136.49,-184.29C974.88,-183.22 373.17,-176.78 186.76,-140 183.75,-139.41 180.66,-138.62 177.6,-137.73"/>
<polygon fill="#63b8ff" stroke="#63b8ff" points="178.67,-134.39 168.08,-134.59 176.48,-141.04 178.67,-134.39"/>
</a>
</g>
</g>
<!-- Node7 -->
<g id="Node000007" class="node">
<title>Node7</title>
<g id="a_Node000007"><a xlink:title=" ">
<polygon fill="#e0e0e0" stroke="#999999" points="76.76,-74 12.76,-74 12.76,-55 76.76,-55 76.76,-74"/>
<text text-anchor="middle" x="44.76" y="-62" font-family="Helvetica,sans-Serif" font-size="10.00">algorithm</text>
</a>
</g>
</g>
<!-- Node4&#45;&gt;Node7 -->
<g id="edge20_Node000004_Node000007" class="edge">
<title>Node4&#45;&gt;Node7</title>
<g id="a_edge20_Node000004_Node000007"><a xlink:title=" ">
<path fill="none" stroke="#63b8ff" d="M1136.75,-184.6C954.66,-184.83 208.93,-183.1 114.76,-140 88.61,-128.04 67.53,-101.38 55.57,-83.42"/>
<polygon fill="#63b8ff" stroke="#63b8ff" points="58.2,-81.04 49.89,-74.48 52.3,-84.8 58.2,-81.04"/>
</a>
</g>
</g>
<!-- Node12 -->
<g id="Node000012" class="node">
<title>Node12</title>
<g id="a_Node000012"><a xlink:title=" ">
<polygon fill="#e0e0e0" stroke="#999999" points="416.26,-74 369.26,-74 369.26,-55 416.26,-55 416.26,-74"/>
<text text-anchor="middle" x="392.76" y="-62" font-family="Helvetica,sans-Serif" font-size="10.00">vector</text>
</a>
</g>
</g>
<!-- Node4&#45;&gt;Node12 -->
<g id="edge35_Node000004_Node000012" class="edge">
<title>Node4&#45;&gt;Node12</title>
<g id="a_edge35_Node000004_Node000012"><a xlink:title=" ">
<path fill="none" stroke="#63b8ff" d="M1136.59,-184.16C959.15,-182.46 252.84,-173.61 220.76,-140 211.55,-130.36 212.6,-120.54 220.76,-110 220.89,-109.82 309.53,-86.95 359.49,-74.07"/>
<polygon fill="#63b8ff" stroke="#63b8ff" points="360.42,-77.45 369.23,-71.56 358.67,-70.67 360.42,-77.45"/>
</a>
</g>
</g>
<!-- Node13 -->
<g id="Node000013" class="node">
<title>Node13</title>
<g id="a_Node000013"><a xlink:title=" ">
<polygon fill="#e0e0e0" stroke="#999999" points="306.26,-134.5 229.26,-134.5 229.26,-115.5 306.26,-115.5 306.26,-134.5"/>
<text text-anchor="middle" x="267.76" y="-122.5" font-family="Helvetica,sans-Serif" font-size="10.00">openssl/ec.h</text>
</a>
</g>
</g>
<!-- Node4&#45;&gt;Node13 -->
<g id="edge12_Node000004_Node000013" class="edge">
<title>Node4&#45;&gt;Node13</title>
<g id="a_edge12_Node000004_Node000013"><a xlink:title=" ">
<path fill="none" stroke="#63b8ff" d="M1136.62,-183.66C989.05,-180.38 476.8,-167.27 315.76,-140 311.52,-139.28 307.13,-138.32 302.8,-137.23"/>
<polygon fill="#63b8ff" stroke="#63b8ff" points="303.48,-133.79 292.91,-134.53 301.63,-140.54 303.48,-133.79"/>
</a>
</g>
</g>
<!-- Node14 -->
<g id="Node000014" class="node">
<title>Node14</title>
<g id="a_Node000014"><a xlink:title=" ">
<polygon fill="#e0e0e0" stroke="#999999" points="419.26,-134.5 324.26,-134.5 324.26,-115.5 419.26,-115.5 419.26,-134.5"/>
<text text-anchor="middle" x="371.76" y="-122.5" font-family="Helvetica,sans-Serif" font-size="10.00">openssl/ecdsa.h</text>
</a>
</g>
</g>
<!-- Node4&#45;&gt;Node14 -->
<g id="edge13_Node000004_Node000014" class="edge">
<title>Node4&#45;&gt;Node14</title>
<g id="a_edge13_Node000004_Node000014"><a xlink:title=" ">
<path fill="none" stroke="#63b8ff" d="M1136.76,-184.66C1024.45,-184.57 696.95,-180.57 428.76,-140 423.28,-139.17 417.56,-138.06 411.94,-136.83"/>
<polygon fill="#63b8ff" stroke="#63b8ff" points="412.56,-133.38 402.02,-134.51 410.96,-140.2 412.56,-133.38"/>
</a>
</g>
</g>
<!-- Node15 -->
<g id="Node000015" class="node">
<title>Node15</title>
<g id="a_Node000015"><a xlink:title=" ">
<polygon fill="#e0e0e0" stroke="#999999" points="516.26,-134.5 437.26,-134.5 437.26,-115.5 516.26,-115.5 516.26,-134.5"/>
<text text-anchor="middle" x="476.76" y="-122.5" font-family="Helvetica,sans-Serif" font-size="10.00">openssl/err.h</text>
</a>
</g>
</g>
<!-- Node4&#45;&gt;Node15 -->
<g id="edge14_Node000004_Node000015" class="edge">
<title>Node4&#45;&gt;Node15</title>
<g id="a_edge14_Node000004_Node000015"><a xlink:title=" ">
<path fill="none" stroke="#63b8ff" d="M1136.7,-184.75C1034.09,-184.76 753.75,-180.72 524.76,-140 520.58,-139.26 516.24,-138.29 511.96,-137.2"/>
<polygon fill="#63b8ff" stroke="#63b8ff" points="512.74,-133.79 502.17,-134.52 510.89,-140.54 512.74,-133.79"/>
</a>
</g>
</g>
<!-- Node16 -->
<g id="Node000016" class="node">
<title>Node16</title>
<g id="a_Node000016"><a xlink:title=" ">
<polygon fill="#e0e0e0" stroke="#999999" points="617.76,-134.5 533.76,-134.5 533.76,-115.5 617.76,-115.5 617.76,-134.5"/>
<text text-anchor="middle" x="575.76" y="-122.5" font-family="Helvetica,sans-Serif" font-size="10.00">openssl/evp.h</text>
</a>
</g>
</g>
<!-- Node4&#45;&gt;Node16 -->
<g id="edge15_Node000004_Node000016" class="edge">
<title>Node4&#45;&gt;Node16</title>
<g id="a_edge15_Node000004_Node000016"><a xlink:title=" ">
<path fill="none" stroke="#63b8ff" d="M1136.75,-183.82C1045.58,-181.72 815.69,-173.27 626.76,-140 622.26,-139.21 617.59,-138.2 612.98,-137.08"/>
<polygon fill="#63b8ff" stroke="#63b8ff" points="613.63,-133.63 603.07,-134.51 611.87,-140.41 613.63,-133.63"/>
</a>
</g>
</g>
<!-- Node17 -->
<g id="Node000017" class="node">
<title>Node17</title>
<g id="a_Node000017"><a xlink:title=" ">
<polygon fill="#e0e0e0" stroke="#999999" points="728.26,-134.5 635.26,-134.5 635.26,-115.5 728.26,-115.5 728.26,-134.5"/>
<text text-anchor="middle" x="681.76" y="-122.5" font-family="Helvetica,sans-Serif" font-size="10.00">openssl/hmac.h</text>
</a>
</g>
</g>
<!-- Node4&#45;&gt;Node17 -->
<g id="edge16_Node000004_Node000017" class="edge">
<title>Node4&#45;&gt;Node17</title>
<g id="a_edge16_Node000004_Node000017"><a xlink:title=" ">
<path fill="none" stroke="#63b8ff" d="M1136.54,-182.37C1058.96,-177.82 883.4,-165.45 737.76,-140 732.7,-139.12 727.43,-138.03 722.23,-136.85"/>
<polygon fill="#63b8ff" stroke="#63b8ff" points="722.94,-133.42 712.4,-134.5 721.31,-140.23 722.94,-133.42"/>
</a>
</g>
</g>
<!-- Node18 -->
<g id="Node000018" class="node">
<title>Node18</title>
<g id="a_Node000018"><a xlink:title=" ">
<polygon fill="#e0e0e0" stroke="#999999" points="834.76,-134.5 746.76,-134.5 746.76,-115.5 834.76,-115.5 834.76,-134.5"/>
<text text-anchor="middle" x="790.76" y="-122.5" font-family="Helvetica,sans-Serif" font-size="10.00">openssl/pem.h</text>
</a>
</g>
</g>
<!-- Node4&#45;&gt;Node18 -->
<g id="edge17_Node000004_Node000018" class="edge">
<title>Node4&#45;&gt;Node18</title>
<g id="a_edge17_Node000004_Node000018"><a xlink:title=" ">
<path fill="none" stroke="#63b8ff" d="M1136.64,-180.7C1073.97,-174.41 949.19,-160.46 844.76,-140 840.31,-139.13 835.68,-138.11 831.08,-137.02"/>
<polygon fill="#63b8ff" stroke="#63b8ff" points="831.72,-133.57 821.17,-134.57 830.04,-140.37 831.72,-133.57"/>
</a>
</g>
</g>
<!-- Node19 -->
<g id="Node000019" class="node">
<title>Node19</title>
<g id="a_Node000019"><a xlink:title=" ">
<polygon fill="#e0e0e0" stroke="#999999" points="934.26,-134.5 853.26,-134.5 853.26,-115.5 934.26,-115.5 934.26,-134.5"/>
<text text-anchor="middle" x="893.76" y="-122.5" font-family="Helvetica,sans-Serif" font-size="10.00">openssl/rsa.h</text>
</a>
</g>
</g>
<!-- Node4&#45;&gt;Node19 -->
<g id="edge18_Node000004_Node000019" class="edge">
<title>Node4&#45;&gt;Node19</title>
<g id="a_edge18_Node000004_Node000019"><a xlink:title=" ">
<path fill="none" stroke="#63b8ff" d="M1136.55,-177.88C1089.93,-169.96 1010.91,-155.78 943.76,-140 940.12,-139.15 936.35,-138.2 932.59,-137.22"/>
<polygon fill="#63b8ff" stroke="#63b8ff" points="933.3,-133.78 922.73,-134.56 931.48,-140.54 933.3,-133.78"/>
</a>
</g>
</g>
<!-- Node20 -->
<g id="Node000020" class="node">
<title>Node20</title>
<g id="a_Node000020"><a xlink:title=" ">
<polygon fill="#e0e0e0" stroke="#999999" points="1032.76,-134.5 952.76,-134.5 952.76,-115.5 1032.76,-115.5 1032.76,-134.5"/>
<text text-anchor="middle" x="992.76" y="-122.5" font-family="Helvetica,sans-Serif" font-size="10.00">openssl/ssl.h</text>
</a>
</g>
</g>
<!-- Node4&#45;&gt;Node20 -->
<g id="edge19_Node000004_Node000020" class="edge">
<title>Node4&#45;&gt;Node20</title>
<g id="a_edge19_Node000004_Node000020"><a xlink:title=" ">
<path fill="none" stroke="#63b8ff" d="M1150,-175.99C1118.12,-165.86 1064.68,-148.87 1029.08,-137.55"/>
<polygon fill="#63b8ff" stroke="#63b8ff" points="1030.14,-134.21 1019.55,-134.52 1028.01,-140.88 1030.14,-134.21"/>
</a>
</g>
</g>
<!-- Node21 -->
<g id="Node000021" class="node">
<title>Node21</title>
<g id="a_Node000021"><a xlink:title=" ">
<polygon fill="#e0e0e0" stroke="#999999" points="1100.76,-134.5 1050.76,-134.5 1050.76,-115.5 1100.76,-115.5 1100.76,-134.5"/>
<text text-anchor="middle" x="1075.76" y="-122.5" font-family="Helvetica,sans-Serif" font-size="10.00">chrono</text>
</a>
</g>
</g>
<!-- Node4&#45;&gt;Node21 -->
<g id="edge21_Node000004_Node000021" class="edge">
<title>Node4&#45;&gt;Node21</title>
<g id="a_edge21_Node000004_Node000021"><a xlink:title=" ">
<path fill="none" stroke="#63b8ff" d="M1161.85,-175.87C1145.44,-166.36 1118.83,-150.95 1099.53,-139.77"/>
<polygon fill="#63b8ff" stroke="#63b8ff" points="1101.13,-136.65 1090.72,-134.67 1097.62,-142.71 1101.13,-136.65"/>
</a>
</g>
</g>
<!-- Node22 -->
<g id="Node000022" class="node">
<title>Node22</title>
<g id="a_Node000022"><a xlink:title=" ">
<polygon fill="#e0e0e0" stroke="#999999" points="1168.76,-134.5 1118.76,-134.5 1118.76,-115.5 1168.76,-115.5 1168.76,-134.5"/>
<text text-anchor="middle" x="1143.76" y="-122.5" font-family="Helvetica,sans-Serif" font-size="10.00">climits</text>
</a>
</g>
</g>
<!-- Node4&#45;&gt;Node22 -->
<g id="edge22_Node000004_Node000022" class="edge">
<title>Node4&#45;&gt;Node22</title>
<g id="a_edge22_Node000004_Node000022"><a xlink:title=" ">
<path fill="none" stroke="#63b8ff" d="M1171.89,-175.87C1167.11,-167.4 1159.69,-154.24 1153.67,-143.57"/>
<polygon fill="#63b8ff" stroke="#63b8ff" points="1156.61,-141.66 1148.65,-134.67 1150.51,-145.1 1156.61,-141.66"/>
</a>
</g>
</g>
<!-- Node23 -->
<g id="Node000023" class="node">
<title>Node23</title>
<g id="a_Node000023"><a xlink:title=" ">
<polygon fill="#e0e0e0" stroke="#999999" points="1234.26,-134.5 1187.26,-134.5 1187.26,-115.5 1234.26,-115.5 1234.26,-134.5"/>
<text text-anchor="middle" x="1210.76" y="-122.5" font-family="Helvetica,sans-Serif" font-size="10.00">cmath</text>
</a>
</g>
</g>
<!-- Node4&#45;&gt;Node23 -->
<g id="edge23_Node000004_Node000023" class="edge">
<title>Node4&#45;&gt;Node23</title>
<g id="a_edge23_Node000004_Node000023"><a xlink:title=" ">
<path fill="none" stroke="#63b8ff" d="M1181.77,-175.87C1186.7,-167.4 1194.34,-154.24 1200.55,-143.57"/>
<polygon fill="#63b8ff" stroke="#63b8ff" points="1203.72,-145.07 1205.72,-134.67 1197.67,-141.55 1203.72,-145.07"/>
</a>
</g>
</g>
<!-- Node24 -->
<g id="Node000024" class="node">
<title>Node24</title>
<g id="a_Node000024"><a xlink:title=" ">
<polygon fill="#e0e0e0" stroke="#999999" points="1302.76,-134.5 1252.76,-134.5 1252.76,-115.5 1302.76,-115.5 1302.76,-134.5"/>
<text text-anchor="middle" x="1277.76" y="-122.5" font-family="Helvetica,sans-Serif" font-size="10.00">cstring</text>
</a>
</g>
</g>
<!-- Node4&#45;&gt;Node24 -->
<g id="edge24_Node000004_Node000024" class="edge">
<title>Node4&#45;&gt;Node24</title>
<g id="a_edge24_Node000004_Node000024"><a xlink:title=" ">
<path fill="none" stroke="#63b8ff" d="M1191.66,-175.87C1208.07,-166.36 1234.69,-150.95 1253.98,-139.77"/>
<polygon fill="#63b8ff" stroke="#63b8ff" points="1255.89,-142.71 1262.79,-134.67 1252.39,-136.65 1255.89,-142.71"/>
</a>
</g>
</g>
<!-- Node25 -->
<g id="Node000025" class="node">
<title>Node25</title>
<g id="a_Node000025"><a xlink:title=" ">
<polygon fill="#e0e0e0" stroke="#999999" points="1386.26,-134.5 1321.26,-134.5 1321.26,-115.5 1386.26,-115.5 1386.26,-134.5"/>
<text text-anchor="middle" x="1353.76" y="-122.5" font-family="Helvetica,sans-Serif" font-size="10.00">functional</text>
</a>
</g>
</g>
<!-- Node4&#45;&gt;Node25 -->
<g id="edge25_Node000004_Node000025" class="edge">
<title>Node4&#45;&gt;Node25</title>
<g id="a_edge25_Node000004_Node000025"><a xlink:title=" ">
<path fill="none" stroke="#63b8ff" d="M1202.65,-175.99C1229.83,-167.06 1273.81,-152.58 1311.76,-140 1313.89,-139.29 1316.09,-138.56 1318.3,-137.83"/>
<polygon fill="#63b8ff" stroke="#63b8ff" points="1319.61,-141.08 1328,-134.6 1317.4,-134.44 1319.61,-141.08"/>
</a>
</g>
</g>
<!-- Node26 -->
<g id="Node000026" class="node">
<title>Node26</title>
<g id="a_Node000026"><a xlink:title=" ">
<polygon fill="#e0e0e0" stroke="#999999" points="1435.26,-134.5 1404.26,-134.5 1404.26,-115.5 1435.26,-115.5 1435.26,-134.5"/>
<text text-anchor="middle" x="1419.76" y="-122.5" font-family="Helvetica,sans-Serif" font-size="10.00">ios</text>
</a>
</g>
</g>
<!-- Node4&#45;&gt;Node26 -->
<g id="edge26_Node000004_Node000026" class="edge">
<title>Node4&#45;&gt;Node26</title>
<g id="a_edge26_Node000004_Node000026"><a xlink:title=" ">
<path fill="none" stroke="#63b8ff" d="M1216.94,-177.07C1275.53,-166.13 1379.26,-146.29 1395.76,-140 1396.47,-139.73 1397.18,-139.44 1397.89,-139.13"/>
<polygon fill="#63b8ff" stroke="#63b8ff" points="1399.63,-142.18 1406.94,-134.51 1396.44,-135.94 1399.63,-142.18"/>
</a>
</g>
</g>
<!-- Node27 -->
<g id="Node000027" class="node">
<title>Node27</title>
<g id="a_Node000027"><a xlink:title=" ">
<polygon fill="#e0e0e0" stroke="#999999" points="1506.26,-134.5 1453.26,-134.5 1453.26,-115.5 1506.26,-115.5 1506.26,-134.5"/>
<text text-anchor="middle" x="1479.76" y="-122.5" font-family="Helvetica,sans-Serif" font-size="10.00">iterator</text>
</a>
</g>
</g>
<!-- Node4&#45;&gt;Node27 -->
<g id="edge27_Node000004_Node000027" class="edge">
<title>Node4&#45;&gt;Node27</title>
<g id="a_edge27_Node000004_Node000027"><a xlink:title=" ">
<path fill="none" stroke="#63b8ff" d="M1216.86,-177.51C1219.87,-177 1222.86,-176.49 1225.76,-176 1323.02,-159.57 1349.74,-166.47 1444.76,-140 1446.7,-139.46 1448.67,-138.85 1450.65,-138.19"/>
<polygon fill="#63b8ff" stroke="#63b8ff" points="1452.21,-141.34 1460.39,-134.61 1449.8,-134.77 1452.21,-141.34"/>
</a>
</g>
</g>
<!-- Node28 -->
<g id="Node000028" class="node">
<title>Node28</title>
<g id="a_Node000028"><a xlink:title=" ">
<polygon fill="#e0e0e0" stroke="#999999" points="1570.76,-134.5 1524.76,-134.5 1524.76,-115.5 1570.76,-115.5 1570.76,-134.5"/>
<text text-anchor="middle" x="1547.76" y="-122.5" font-family="Helvetica,sans-Serif" font-size="10.00">locale</text>
</a>
</g>
</g>
<!-- Node4&#45;&gt;Node28 -->
<g id="edge28_Node000004_Node000028" class="edge">
<title>Node4&#45;&gt;Node28</title>
<g id="a_edge28_Node000004_Node000028"><a xlink:title=" ">
<path fill="none" stroke="#63b8ff" d="M1216.84,-177.38C1219.86,-176.9 1222.85,-176.43 1225.76,-176 1354.22,-156.9 1390.51,-174.39 1515.76,-140 1517.45,-139.54 1519.16,-139 1520.87,-138.41"/>
<polygon fill="#63b8ff" stroke="#63b8ff" points="1522.45,-141.55 1530.48,-134.64 1519.9,-135.03 1522.45,-141.55"/>
</a>
</g>
</g>
<!-- Node29 -->
<g id="Node000029" class="node">
<title>Node29</title>
<g id="a_Node000029"><a xlink:title=" ">
<polygon fill="#e0e0e0" stroke="#999999" points="1646.76,-134.5 1588.76,-134.5 1588.76,-115.5 1646.76,-115.5 1646.76,-134.5"/>
<text text-anchor="middle" x="1617.76" y="-122.5" font-family="Helvetica,sans-Serif" font-size="10.00">memory</text>
</a>
</g>
</g>
<!-- Node4&#45;&gt;Node29 -->
<g id="edge29_Node000004_Node000029" class="edge">
<title>Node4&#45;&gt;Node29</title>
<g id="a_edge29_Node000004_Node000029"><a xlink:title=" ">
<path fill="none" stroke="#63b8ff" d="M1216.83,-177.31C1219.85,-176.84 1222.85,-176.4 1225.76,-176 1382.43,-154.47 1425.68,-175.62 1579.76,-140 1582.43,-139.38 1585.16,-138.63 1587.89,-137.8"/>
<polygon fill="#63b8ff" stroke="#63b8ff" points="1589.19,-141.05 1597.54,-134.52 1586.94,-134.42 1589.19,-141.05"/>
</a>
</g>
</g>
<!-- Node30 -->
<g id="Node000030" class="node">
<title>Node30</title>
<g id="a_Node000030"><a xlink:title=" ">
<polygon fill="#e0e0e0" stroke="#999999" points="1696.76,-134.5 1664.76,-134.5 1664.76,-115.5 1696.76,-115.5 1696.76,-134.5"/>
<text text-anchor="middle" x="1680.76" y="-122.5" font-family="Helvetica,sans-Serif" font-size="10.00">set</text>
</a>
</g>
</g>
<!-- Node4&#45;&gt;Node30 -->
<g id="edge30_Node000004_Node000030" class="edge">
<title>Node4&#45;&gt;Node30</title>
<g id="a_edge30_Node000004_Node000030"><a xlink:title=" ">
<path fill="none" stroke="#63b8ff" d="M1216.83,-177.25C1219.84,-176.8 1222.85,-176.37 1225.76,-176 1415.98,-151.59 1472.37,-196.13 1655.76,-140 1656.8,-139.68 1657.86,-139.31 1658.9,-138.9"/>
<polygon fill="#63b8ff" stroke="#63b8ff" points="1660.51,-142.02 1668,-134.52 1657.47,-135.71 1660.51,-142.02"/>
</a>
</g>
</g>
<!-- Node31 -->
<g id="Node000031" class="node">
<title>Node31</title>
<g id="a_Node000031"><a xlink:title=" ">
<polygon fill="#e0e0e0" stroke="#999999" points="1796.26,-134.5 1715.26,-134.5 1715.26,-115.5 1796.26,-115.5 1796.26,-134.5"/>
<text text-anchor="middle" x="1755.76" y="-122.5" font-family="Helvetica,sans-Serif" font-size="10.00">system_error</text>
</a>
</g>
</g>
<!-- Node4&#45;&gt;Node31 -->
<g id="edge31_Node000004_Node000031" class="edge">
<title>Node4&#45;&gt;Node31</title>
<g id="a_edge31_Node000004_Node000031"><a xlink:title=" ">
<path fill="none" stroke="#63b8ff" d="M1216.82,-177.22C1219.84,-176.78 1222.84,-176.36 1225.76,-176 1438.07,-149.69 1495.05,-177.02 1705.76,-140 1710.17,-139.22 1714.76,-138.22 1719.28,-137.11"/>
<polygon fill="#63b8ff" stroke="#63b8ff" points="1720.22,-140.48 1729,-134.55 1718.43,-133.71 1720.22,-140.48"/>
</a>
</g>
</g>
<!-- Node32 -->
<g id="Node000032" class="node">
<title>Node32</title>
<g id="a_Node000032"><a xlink:title=" ">
<polygon fill="#e0e0e0" stroke="#999999" points="1883.26,-134.5 1814.26,-134.5 1814.26,-115.5 1883.26,-115.5 1883.26,-134.5"/>
<text text-anchor="middle" x="1848.76" y="-122.5" font-family="Helvetica,sans-Serif" font-size="10.00">type_traits</text>
</a>
</g>
</g>
<!-- Node4&#45;&gt;Node32 -->
<g id="edge32_Node000004_Node000032" class="edge">
<title>Node4&#45;&gt;Node32</title>
<g id="a_edge32_Node000004_Node000032"><a xlink:title=" ">
<path fill="none" stroke="#63b8ff" d="M1216.82,-177.18C1219.84,-176.74 1222.84,-176.34 1225.76,-176 1482.27,-145.88 1552.05,-188.36 1805.76,-140 1809.26,-139.33 1812.87,-138.46 1816.44,-137.48"/>
<polygon fill="#63b8ff" stroke="#63b8ff" points="1817.72,-140.75 1826.28,-134.5 1815.69,-134.05 1817.72,-140.75"/>
</a>
</g>
</g>
<!-- Node33 -->
<g id="Node000033" class="node">
<title>Node33</title>
<g id="a_Node000033"><a xlink:title=" ">
<polygon fill="#e0e0e0" stroke="#999999" points="1994.26,-134.5 1901.26,-134.5 1901.26,-115.5 1994.26,-115.5 1994.26,-134.5"/>
<text text-anchor="middle" x="1947.76" y="-122.5" font-family="Helvetica,sans-Serif" font-size="10.00">unordered_map</text>
</a>
</g>
</g>
<!-- Node4&#45;&gt;Node33 -->
<g id="edge33_Node000004_Node000033" class="edge">
<title>Node4&#45;&gt;Node33</title>
<g id="a_edge33_Node000004_Node000033"><a xlink:title=" ">
<path fill="none" stroke="#63b8ff" d="M1216.81,-177.16C1219.83,-176.72 1222.84,-176.33 1225.76,-176 1520.75,-142.57 1599.29,-184.83 1892.76,-140 1897.92,-139.21 1903.31,-138.15 1908.6,-136.96"/>
<polygon fill="#63b8ff" stroke="#63b8ff" points="1909.67,-140.3 1918.58,-134.56 1908.03,-133.5 1909.67,-140.3"/>
</a>
</g>
</g>
<!-- Node34 -->
<g id="Node000034" class="node">
<title>Node34</title>
<g id="a_Node000034"><a xlink:title=" ">
<polygon fill="#e0e0e0" stroke="#999999" points="2057.26,-134.5 2012.26,-134.5 2012.26,-115.5 2057.26,-115.5 2057.26,-134.5"/>
<text text-anchor="middle" x="2034.76" y="-122.5" font-family="Helvetica,sans-Serif" font-size="10.00">utility</text>
</a>
</g>
</g>
<!-- Node4&#45;&gt;Node34 -->
<g id="edge34_Node000004_Node000034" class="edge">
<title>Node4&#45;&gt;Node34</title>
<g id="a_edge34_Node000004_Node000034"><a xlink:title=" ">
<path fill="none" stroke="#63b8ff" d="M1216.81,-177.13C1219.83,-176.7 1222.84,-176.32 1225.76,-176 1397.8,-157.17 1835.45,-180.34 2003.76,-140 2005.49,-139.58 2007.25,-139.07 2009.01,-138.49"/>
<polygon fill="#63b8ff" stroke="#63b8ff" points="2010.76,-141.56 2018.76,-134.61 2008.17,-135.05 2010.76,-141.56"/>
</a>
</g>
</g>
<!-- Node35 -->
<g id="Node000035" class="node">
<title>Node35</title>
<g id="a_Node000035"><a xlink:href="kazuho-picojson_2defaults_8h_source.html" target="_top" xlink:title=" ">
<polygon fill="white" stroke="#666666" points="2199.76,-140 2075.76,-140 2075.76,-110 2199.76,-110 2199.76,-140"/>
<text text-anchor="start" x="2083.76" y="-128" font-family="Helvetica,sans-Serif" font-size="10.00">traits/kazuho&#45;picojson</text>
<text text-anchor="middle" x="2137.76" y="-117" font-family="Helvetica,sans-Serif" font-size="10.00">/defaults.h</text>
</a>
</g>
</g>
<!-- Node4&#45;&gt;Node35 -->
<g id="edge36_Node000004_Node000035" class="edge">
<title>Node4&#45;&gt;Node35</title>
<g id="a_edge36_Node000004_Node000035"><a xlink:title=" ">
<path fill="none" stroke="#63b8ff" d="M1216.81,-177.12C1219.83,-176.7 1222.84,-176.31 1225.76,-176 1594.46,-136.3 1693.54,-183.47 2065.54,-140.01"/>
<polygon fill="#63b8ff" stroke="#63b8ff" points="2065.98,-143.48 2075.5,-138.83 2065.16,-136.53 2065.98,-143.48"/>
</a>
</g>
</g>
<!-- Node6&#45;&gt;Node7 -->
<g id="edge6_Node000006_Node000007" class="edge">
<title>Node6&#45;&gt;Node7</title>
<g id="a_edge6_Node000006_Node000007"><a xlink:title=" ">
<path fill="none" stroke="#63b8ff" d="M132.56,-115.37C115.75,-105.82 88.44,-90.31 68.73,-79.12"/>
<polygon fill="#63b8ff" stroke="#63b8ff" points="70.44,-76.06 60.02,-74.17 66.98,-82.15 70.44,-76.06"/>
</a>
</g>
</g>
<!-- Node8 -->
<g id="Node000008" class="node">
<title>Node8</title>
<g id="a_Node000008"><a xlink:title=" ">
<polygon fill="#e0e0e0" stroke="#999999" points="136.76,-74 94.76,-74 94.76,-55 136.76,-55 136.76,-74"/>
<text text-anchor="middle" x="115.76" y="-62" font-family="Helvetica,sans-Serif" font-size="10.00">array</text>
</a>
</g>
</g>
<!-- Node6&#45;&gt;Node8 -->
<g id="edge7_Node000006_Node000008" class="edge">
<title>Node6&#45;&gt;Node8</title>
<g id="a_edge7_Node000006_Node000008"><a xlink:title=" ">
<path fill="none" stroke="#63b8ff" d="M143.04,-115.37C138.4,-106.9 131.21,-93.74 125.37,-83.07"/>
<polygon fill="#63b8ff" stroke="#63b8ff" points="128.37,-81.26 120.5,-74.17 122.23,-84.62 128.37,-81.26"/>
</a>
</g>
</g>
<!-- Node9 -->
<g id="Node000009" class="node">
<title>Node9</title>
<g id="a_Node000009"><a xlink:title=" ">
<polygon fill="#e0e0e0" stroke="#999999" points="204.76,-74 154.76,-74 154.76,-55 204.76,-55 204.76,-74"/>
<text text-anchor="middle" x="179.76" y="-62" font-family="Helvetica,sans-Serif" font-size="10.00">cstdint</text>
</a>
</g>
</g>
<!-- Node6&#45;&gt;Node9 -->
<g id="edge8_Node000006_Node000009" class="edge">
<title>Node6&#45;&gt;Node9</title>
<g id="a_edge8_Node000006_Node000009"><a xlink:title=" ">
<path fill="none" stroke="#63b8ff" d="M152.48,-115.37C157.11,-106.9 164.31,-93.74 170.15,-83.07"/>
<polygon fill="#63b8ff" stroke="#63b8ff" points="173.29,-84.62 175.02,-74.17 167.15,-81.26 173.29,-84.62"/>
</a>
</g>
</g>
<!-- Node10 -->
<g id="Node000010" class="node">
<title>Node10</title>
<g id="a_Node000010"><a xlink:title=" ">
<polygon fill="#e0e0e0" stroke="#999999" points="288.26,-74 223.26,-74 223.26,-55 288.26,-55 288.26,-74"/>
<text text-anchor="middle" x="255.76" y="-62" font-family="Helvetica,sans-Serif" font-size="10.00">stdexcept</text>
</a>
</g>
</g>
<!-- Node6&#45;&gt;Node10 -->
<g id="edge9_Node000006_Node000010" class="edge">
<title>Node6&#45;&gt;Node10</title>
<g id="a_edge9_Node000006_Node000010"><a xlink:title=" ">
<path fill="none" stroke="#63b8ff" d="M163.69,-115.37C181.4,-105.78 210.22,-90.17 230.9,-78.97"/>
<polygon fill="#63b8ff" stroke="#63b8ff" points="232.63,-82.01 239.76,-74.17 229.3,-75.85 232.63,-82.01"/>
</a>
</g>
</g>
<!-- Node11 -->
<g id="Node000011" class="node">
<title>Node11</title>
<g id="a_Node000011"><a xlink:title=" ">
<polygon fill="#e0e0e0" stroke="#999999" points="350.76,-74 306.76,-74 306.76,-55 350.76,-55 350.76,-74"/>
<text text-anchor="middle" x="328.76" y="-62" font-family="Helvetica,sans-Serif" font-size="10.00">string</text>
</a>
</g>
</g>
<!-- Node6&#45;&gt;Node11 -->
<g id="edge10_Node000006_Node000011" class="edge">
<title>Node6&#45;&gt;Node11</title>
<g id="a_edge10_Node000006_Node000011"><a xlink:title=" ">
<path fill="none" stroke="#63b8ff" d="M171.21,-115.4C176.32,-113.58 181.71,-111.7 186.76,-110 224.27,-97.39 267.74,-83.94 296.6,-75.17"/>
<polygon fill="#63b8ff" stroke="#63b8ff" points="297.97,-78.41 306.53,-72.16 295.94,-71.71 297.97,-78.41"/>
</a>
</g>
</g>
<!-- Node6&#45;&gt;Node12 -->
<g id="edge11_Node000006_Node000012" class="edge">
<title>Node6&#45;&gt;Node12</title>
<g id="a_edge11_Node000006_Node000012"><a xlink:title=" ">
<path fill="none" stroke="#63b8ff" d="M169.86,-115.46C175.33,-113.52 181.22,-111.56 186.76,-110 259.39,-89.51 281.55,-91.59 359.24,-74.01"/>
<polygon fill="#63b8ff" stroke="#63b8ff" points="360.04,-77.42 369,-71.76 358.47,-70.59 360.04,-77.42"/>
</a>
</g>
</g>
<!-- Node36 -->
<g id="Node000036" class="node">
<title>Node36</title>
<g id="a_Node000036"><a xlink:href="kazuho-picojson_2traits_8h_source.html" target="_top" xlink:title=" ">
<polygon fill="white" stroke="#666666" points="2163.26,-74 2112.26,-74 2112.26,-55 2163.26,-55 2163.26,-74"/>
<text text-anchor="middle" x="2137.76" y="-62" font-family="Helvetica,sans-Serif" font-size="10.00">traits.h</text>
</a>
</g>
</g>
<!-- Node35&#45;&gt;Node36 -->
<g id="edge37_Node000035_Node000036" class="edge">
<title>Node35&#45;&gt;Node36</title>
<g id="a_edge37_Node000035_Node000036"><a xlink:title=" ">
<path fill="none" stroke="#63b8ff" d="M2137.76,-109.84C2137.76,-102.21 2137.76,-92.7 2137.76,-84.45"/>
<polygon fill="#63b8ff" stroke="#63b8ff" points="2141.26,-84.27 2137.76,-74.27 2134.26,-84.27 2141.26,-84.27"/>
</a>
</g>
</g>
<!-- Node36&#45;&gt;Node4 -->
<g id="edge39_Node000036_Node000004" class="edge">
<title>Node36&#45;&gt;Node4</title>
<g id="a_edge39_Node000036_Node000004"><a xlink:title=" ">
<path fill="none" stroke="#63b8ff" d="M2163.26,-74.1C2179.45,-81.04 2199.11,-92.56 2208.76,-110 2215.21,-121.67 2218.01,-130.4 2208.76,-140 2172.2,-177.92 1343.36,-170.91 1226.83,-176.42"/>
<polygon fill="#63b8ff" stroke="#63b8ff" points="1226.55,-172.93 1216.81,-177.1 1227.02,-179.92 1226.55,-172.93"/>
</a>
</g>
</g>
<!-- Node36&#45;&gt;Node5 -->
<g id="edge38_Node000036_Node000005" class="edge">
<title>Node36&#45;&gt;Node5</title>
<g id="a_edge38_Node000036_Node000005"><a xlink:title=" ">
<path fill="none" stroke="#63b8ff" d="M2112.08,-62.26C1974.3,-55.57 1320.96,-23.89 1110.36,-13.68"/>
<polygon fill="#63b8ff" stroke="#63b8ff" points="1110.23,-10.17 1100.07,-13.18 1109.89,-17.16 1110.23,-10.17"/>
</a>
</g>
</g>
</g>
</svg>
